<svg width="1187" height="780" viewBox="0 0 1187 780" fill="none" xmlns="http://www.w3.org/2000/svg">
<g clip-path="url(#clip0_1_2)">
<mask id="mask0_1_2" style="mask-type:luminance" maskUnits="userSpaceOnUse" x="0" y="0" width="1188" height="780">
<path d="M1187.5 0H0.5V780H1187.5V0Z" fill="white"/>
</mask>
<g mask="url(#mask0_1_2)">
<path d="M875.99 411.919H316.358C300.021 411.919 286.852 398.657 286.852 382.426V32.064C286.852 15.734 300.12 2.57001 316.358 2.57001H875.99C892.33 2.57001 905.5 15.833 905.5 32.064V382.426C905.5 398.657 892.23 411.919 875.99 411.919Z" fill="#C08FFF"/>
<path d="M905.5 67.6H286.754V31.97C286.754 15.64 300.022 2.47699 316.261 2.47699H875.9C892.23 2.47699 905.4 15.739 905.4 31.97V67.6H905.5Z" fill="white"/>
<path d="M905.5 270.688V382.328C905.5 398.659 892.23 411.822 875.99 411.822H316.358C300.021 411.822 286.852 398.56 286.852 382.328V315.324" stroke="#191919" stroke-width="5" stroke-miterlimit="10" stroke-linecap="round" stroke-linejoin="round"/>
<path d="M517.164 2.47699H875.9C892.24 2.47699 905.4 15.739 905.4 31.97V244.761" stroke="#191919" stroke-width="5" stroke-miterlimit="10" stroke-linecap="round" stroke-linejoin="round"/>
<path d="M816.98 411.926V67.602H375.375V464.381V623.825H639.846H728.37H772.63C797.08 623.825 816.89 604.031 816.89 579.585L816.98 411.926Z" fill="white"/>
<path d="M286.754 96.005V31.97C286.754 15.64 300.022 2.47699 316.261 2.47699H400.226" stroke="#191919" stroke-width="5" stroke-miterlimit="10" stroke-linecap="round" stroke-linejoin="round"/>
<path d="M286.754 270.691V150.242" stroke="#191919" stroke-width="5" stroke-miterlimit="10" stroke-linecap="round" stroke-linejoin="round"/>
<path d="M445.871 2.47699H493.696" stroke="#191919" stroke-width="5" stroke-miterlimit="10" stroke-linecap="round" stroke-linejoin="round"/>
<path d="M587.068 67.602H286.754" stroke="#191919" stroke-width="5" stroke-miterlimit="10" stroke-linecap="round" stroke-linejoin="round"/>
<path d="M905.51 67.602H644.797" stroke="#191919" stroke-width="5" stroke-miterlimit="10" stroke-linecap="round" stroke-linejoin="round"/>
<path d="M324.579 47.608C331.524 47.608 337.154 41.98 337.154 35.038C337.154 28.096 331.524 22.469 324.579 22.469C317.634 22.469 312.004 28.096 312.004 35.038C312.004 41.98 317.634 47.608 324.579 47.608Z" fill="#191919"/>
<path d="M369.235 47.608C376.18 47.608 381.81 41.98 381.81 35.038C381.81 28.096 376.18 22.469 369.235 22.469C362.29 22.469 356.66 28.096 356.66 35.038C356.66 41.98 362.29 47.608 369.235 47.608Z" fill="#191919"/>
<path d="M413.891 47.608C420.836 47.608 426.466 41.98 426.466 35.038C426.466 28.096 420.836 22.469 413.891 22.469C406.946 22.469 401.316 28.096 401.316 35.038C401.316 41.98 406.946 47.608 413.891 47.608Z" fill="#191919"/>
<path d="M574.691 339.078H714.9" stroke="#191919" stroke-width="5" stroke-miterlimit="10" stroke-linecap="round" stroke-linejoin="round"/>
<path d="M574.691 376.492H635.388" stroke="#191919" stroke-width="5" stroke-miterlimit="10" stroke-linecap="round" stroke-linejoin="round"/>
<path d="M574.691 357.781H714.9" stroke="#191919" stroke-width="5" stroke-miterlimit="10" stroke-linecap="round" stroke-linejoin="round"/>
<path d="M772.13 623.819H639.844V508.616C639.844 484.169 659.647 464.375 684.1 464.375C696.38 464.375 707.37 469.324 715.39 477.34C723.41 485.357 728.36 496.442 728.36 508.616V579.48C728.36 603.827 747.87 623.522 772.13 623.819Z" fill="#191919" stroke="#191919" stroke-width="5" stroke-miterlimit="10" stroke-linecap="round" stroke-linejoin="round"/>
<path d="M808.17 606.01C807.78 606.604 807.28 607.099 806.89 607.693C805.99 608.782 805 609.87 804.01 610.86C803.22 611.652 802.53 612.345 801.64 613.037C801.34 613.235 801.14 613.532 800.85 613.73C800.35 614.126 799.76 614.621 799.16 615.017C798.57 615.413 797.97 615.809 797.48 616.204C796.59 616.798 795.7 617.392 794.81 617.887C794.31 618.184 793.82 618.481 793.22 618.778C791.24 619.867 789.16 620.757 786.98 621.45C785.3 622.044 783.52 622.539 781.74 622.836C781.44 622.935 781.14 622.935 780.94 623.034C780.45 623.133 779.95 623.232 779.46 623.331C777.28 623.627 775.1 623.825 772.92 623.825H772.33C748.17 623.528 728.66 603.833 728.66 579.585V508.721C728.66 496.448 723.71 485.462 715.69 477.445C707.67 469.429 696.58 464.48 684.4 464.48C659.946 464.48 640.143 484.275 640.143 508.721V623.924H375.375V67.602" stroke="#191919" stroke-width="5" stroke-miterlimit="10" stroke-linecap="round" stroke-linejoin="round"/>
<path d="M816.98 67.602V541.184" stroke="#191919" stroke-width="5" stroke-miterlimit="10" stroke-linecap="round" stroke-linejoin="round"/>
<path d="M728.36 579.58V508.617" stroke="#191919" stroke-width="5" stroke-miterlimit="10" stroke-linecap="round" stroke-linejoin="round"/>
<path d="M667.472 464.375C664.501 466.849 661.729 469.621 659.451 472.788C648.362 480.804 641.133 493.869 641.133 508.616V733.28C641.133 757.73 621.33 777.52 596.873 777.52C584.595 777.52 573.605 772.57 565.584 764.56C557.564 756.54 552.613 745.46 552.613 733.28V704.18H199.523V508.616C199.523 484.169 219.327 464.375 243.783 464.375H667.472Z" fill="white"/>
<path d="M400.324 499.516H587.068" stroke="#191919" stroke-width="5" stroke-miterlimit="10" stroke-linecap="round" stroke-linejoin="round"/>
<path d="M574.691 155.586H714.9" stroke="#191919" stroke-width="5" stroke-miterlimit="10" stroke-linecap="round" stroke-linejoin="round"/>
<path d="M574.691 192.992H635.388" stroke="#191919" stroke-width="5" stroke-miterlimit="10" stroke-linecap="round" stroke-linejoin="round"/>
<path d="M574.691 174.289H714.9" stroke="#191919" stroke-width="5" stroke-miterlimit="10" stroke-linecap="round" stroke-linejoin="round"/>
<path d="M472.707 544.25H587.07" stroke="#191919" stroke-width="5" stroke-miterlimit="10" stroke-linecap="round" stroke-linejoin="round"/>
<path d="M291.902 544.25H444.981" stroke="#191919" stroke-width="5" stroke-miterlimit="10" stroke-linecap="round" stroke-linejoin="round"/>
<path d="M380.027 589.086H420.228H525.085" stroke="#191919" stroke-width="5" stroke-miterlimit="10" stroke-linecap="round" stroke-linejoin="round"/>
<path d="M250.219 589.086H339.036" stroke="#191919" stroke-width="5" stroke-miterlimit="10" stroke-linecap="round" stroke-linejoin="round"/>
<path d="M511.023 633.82H587.068" stroke="#191919" stroke-width="5" stroke-miterlimit="10" stroke-linecap="round" stroke-linejoin="round"/>
<path d="M250.219 633.82H486.866" stroke="#191919" stroke-width="5" stroke-miterlimit="10" stroke-linecap="round" stroke-linejoin="round"/>
<path d="M250.219 678.555H441.22" stroke="#191919" stroke-width="5" stroke-miterlimit="10" stroke-linecap="round" stroke-linejoin="round"/>
<path d="M639.846 723.58V508.616C639.846 498.916 642.915 490.009 648.262 482.685C650.54 479.518 653.213 476.747 656.184 474.272C663.808 468.037 673.511 464.375 684.11 464.375H566.277" stroke="#191919" stroke-width="5" stroke-miterlimit="10" stroke-linecap="round" stroke-linejoin="round"/>
<path d="M198.234 530.587V508.616C198.234 484.169 218.038 464.375 242.494 464.375H529.838" stroke="#191919" stroke-width="5" stroke-miterlimit="10" stroke-linecap="round" stroke-linejoin="round"/>
<path d="M628.656 762.78C620.536 771.89 608.753 777.63 595.584 777.63C583.306 777.63 572.316 772.68 564.295 764.66C556.275 756.65 551.324 745.56 551.324 733.39V704.29H198.234V589.086" stroke="#191919" stroke-width="5" stroke-miterlimit="10" stroke-linecap="round" stroke-linejoin="round"/>
<path d="M595.585 777.53H153.678C129.221 777.53 109.418 757.73 109.418 733.29V704.19H551.325V733.29C551.325 745.56 556.276 756.54 564.296 764.56C572.316 772.58 583.307 777.53 595.585 777.53Z" fill="white"/>
<path d="M595.585 777.53H153.678C129.221 777.53 109.418 757.73 109.418 733.29V704.19H551.325V733.29C551.325 745.56 556.276 756.54 564.296 764.56C572.316 772.58 583.307 777.53 595.585 777.53Z" fill="#191919" stroke="#191919" stroke-width="5" stroke-miterlimit="10" stroke-linecap="round" stroke-linejoin="round"/>
<path d="M718.96 439.438H718.86" stroke="#191919" stroke-width="5" stroke-miterlimit="10" stroke-linecap="round" stroke-linejoin="round"/>
<path d="M1015.71 432.31C1007.19 425.877 993.73 427.658 984.52 436.962C975.21 446.265 973.43 459.725 979.87 468.138C905.31 525.146 798.17 519.505 730.05 451.412C726.19 447.552 722.52 443.494 719.06 439.436C793.62 502.481 905.51 498.819 975.91 428.45C1046.31 358.081 1049.97 246.242 986.9 171.617C991.05 175.081 995.02 178.743 998.88 182.603C1067.1 250.696 1072.74 357.784 1015.71 432.31Z" fill="#191919" stroke="#191919" stroke-width="5" stroke-miterlimit="10" stroke-linecap="round" stroke-linejoin="round"/>
<path d="M987.09 171.523C983.63 167.366 979.96 163.407 976 159.547C901.74 85.318 781.24 85.318 706.98 159.547C632.716 233.776 632.716 354.225 706.98 428.454C710.84 432.314 714.9 435.976 718.96 439.44C793.72 502.486 905.5 498.725 975.9 428.355C1046.4 358.085 1050.07 246.247 987.09 171.523Z" fill="#8AFFD8"/>
<path d="M651.43 303.646C653.707 349.075 672.223 393.711 706.88 428.45C710.74 432.31 714.8 435.972 718.86 439.436C793.62 502.482 905.5 498.82 975.9 428.45C1046.3 358.081 1049.97 246.243 986.99 171.617C983.53 167.461 979.86 163.502 976 159.642C921.74 105.405 842.83 90.757 775.3 115.797" stroke="#191919" stroke-width="5" stroke-miterlimit="10" stroke-linecap="round" stroke-linejoin="round"/>
<path d="M739.75 395.491C683.61 339.374 683.61 248.518 739.75 192.4C795.89 136.283 886.79 136.283 942.93 192.4C946.79 196.26 950.46 200.318 953.82 204.574C897.38 159.641 815 163.204 762.82 215.461C710.64 267.619 706.98 349.964 751.93 406.378C747.77 403.013 743.71 399.45 739.75 395.491Z" fill="#191919" stroke="#191919" stroke-width="5" stroke-miterlimit="10" stroke-linecap="round" stroke-linejoin="round"/>
<path d="M943.03 395.494C890.85 447.652 808.47 451.314 752.03 406.381C707.08 349.967 710.64 267.622 762.92 215.464C815.1 163.305 897.48 159.643 953.92 204.577C998.88 260.991 995.21 343.336 943.03 395.494Z" fill="white"/>
<path d="M911.44 419.448C861.34 447.457 797.97 443.102 751.93 406.482C706.98 350.068 710.54 267.723 762.82 215.565C815 163.407 897.38 159.745 953.82 204.678C983.53 241.892 992.04 290.388 979.37 334.035" stroke="#191919" stroke-width="5" stroke-miterlimit="10" stroke-linecap="round" stroke-linejoin="round"/>
<path d="M954.52 382.531C950.95 386.985 947.19 391.34 943.03 395.497C939.47 399.06 935.8 402.326 932.04 405.394" stroke="#191919" stroke-width="5" stroke-miterlimit="10" stroke-linecap="round" stroke-linejoin="round"/>
<path d="M1180.17 575.03C1171.36 568.3 1152.74 574.733 1137.4 589.975C1122.15 605.216 1115.71 623.823 1122.45 632.731L981.35 470.02C980.75 469.427 980.26 468.833 979.76 468.239C973.33 459.727 975.11 446.267 984.42 437.063C993.73 427.759 1007.19 425.879 1015.61 432.411C1016.3 432.906 1016.9 433.401 1017.39 433.994L1180.17 575.03Z" fill="#8AFFD8"/>
<path d="M1103.73 508.62L1180.27 574.931C1171.46 568.201 1152.84 574.634 1137.5 589.876C1122.25 605.117 1115.81 623.724 1122.54 632.632L981.35 470.02C980.75 469.427 980.26 468.833 979.76 468.239C973.33 459.727 975.11 446.267 984.42 437.063C993.73 427.759 1007.19 425.879 1015.61 432.411C1016.3 432.906 1016.9 433.401 1017.39 433.994L1069.37 479.027" stroke="#191919" stroke-width="5" stroke-miterlimit="10" stroke-linecap="round" stroke-linejoin="round"/>
<path d="M1181.36 576.021L1180.17 575.031" stroke="#191919" stroke-width="5" stroke-miterlimit="10" stroke-linecap="round" stroke-linejoin="round"/>
<path d="M1123.54 633.82L1122.55 632.633" stroke="#191919" stroke-width="5" stroke-miterlimit="10" stroke-linecap="round" stroke-linejoin="round"/>
<path d="M1167.4 619.865C1151.46 635.8 1131.75 642.035 1123.54 633.82C1123.14 633.425 1122.84 633.029 1122.55 632.633C1115.81 623.824 1122.25 605.217 1137.5 589.877C1152.75 574.635 1171.36 568.202 1180.27 574.932C1180.67 575.229 1181.06 575.625 1181.46 575.922C1189.68 584.235 1183.44 603.931 1167.4 619.865Z" fill="#191919" stroke="#191919" stroke-width="5" stroke-miterlimit="10" stroke-linecap="round" stroke-linejoin="round"/>
<path d="M834.51 270.688C834.51 285.038 822.82 296.717 808.47 296.717C794.11 296.717 782.43 285.038 782.43 270.688" stroke="#191919" stroke-width="5" stroke-miterlimit="10" stroke-linecap="round" stroke-linejoin="round"/>
<path d="M934.22 270.688C934.22 285.038 922.53 296.717 908.17 296.717C893.82 296.717 882.13 285.038 882.13 270.688" stroke="#191919" stroke-width="5" stroke-miterlimit="10" stroke-linecap="round" stroke-linejoin="round"/>
<path d="M858.37 358.184C866.25 358.184 872.63 351.803 872.63 343.932C872.63 336.061 866.25 329.68 858.37 329.68C850.5 329.68 844.11 336.061 844.11 343.932C844.11 351.803 850.5 358.184 858.37 358.184Z" fill="#191919" stroke="#191919" stroke-width="5" stroke-miterlimit="10" stroke-linecap="round" stroke-linejoin="round"/>
<path d="M399.238 228.227C386.168 226.148 377.851 214.866 377.851 202.989C377.851 197.941 379.336 192.795 382.702 188.242C396.069 169.734 380.722 147.663 362.107 147.663C357.156 147.663 352.107 149.148 347.255 152.711C331.907 163.796 310.322 154.789 307.252 136.183C304.975 121.931 293.489 114.805 282.102 114.805C270.716 114.805 259.329 121.931 256.952 136.183C254.873 149.247 243.585 157.561 231.802 157.561C226.753 157.561 221.604 156.076 216.95 152.711C198.434 139.35 176.354 154.69 176.354 173.297C176.354 178.246 177.839 183.293 181.403 188.143C184.671 192.696 186.255 197.842 186.255 202.89C186.255 214.668 177.938 225.95 164.868 228.128C150.61 230.404 143.48 241.885 143.48 253.267C143.48 264.649 150.61 276.03 164.868 278.406C177.938 280.484 186.255 291.767 186.255 303.644C186.255 308.691 184.77 313.838 181.403 318.391C168.036 336.898 183.384 358.969 201.999 358.969C206.851 358.969 211.999 357.485 216.851 353.922C232.199 342.837 253.784 351.843 256.853 370.45C261.507 398.954 302.5 398.954 307.153 370.45C309.233 357.386 320.521 349.072 332.303 349.072C337.353 349.072 342.502 350.557 347.156 353.922C365.672 367.283 387.752 351.942 387.752 333.335C387.752 328.387 386.267 323.339 382.702 318.489C379.435 313.937 377.851 308.79 377.851 303.743C377.851 291.965 386.168 280.682 399.238 278.505C413.496 276.228 420.625 264.748 420.625 253.366C420.625 241.984 413.496 230.503 399.238 228.227ZM282.003 297.408C257.646 297.408 237.941 277.713 237.941 253.366C237.941 229.019 257.646 209.323 282.003 209.323C306.361 209.323 326.065 229.019 326.065 253.366C326.065 277.713 306.361 297.408 282.003 297.408Z" fill="#8AFFD8"/>
<path d="M377.552 203.088C377.552 198.04 379.037 192.894 382.404 188.341C395.771 169.833 380.424 147.762 361.809 147.762C356.858 147.762 351.808 149.247 346.956 152.81C331.609 163.895 310.024 154.888 306.954 136.282C304.479 121.931 293.092 114.805 281.705 114.805C270.318 114.805 258.931 121.931 256.555 136.183C254.476 149.247 243.188 157.561 231.405 157.561C226.355 157.561 221.206 156.076 216.553 152.711C204.968 144.397 191.997 147.268 183.977 155.086" stroke="#191919" stroke-width="5" stroke-miterlimit="10" stroke-linecap="round" stroke-linejoin="round"/>
<path d="M240.613 350.859C248.634 353.927 255.07 360.954 256.555 370.555C261.209 399.059 302.201 399.059 306.855 370.555C308.934 357.49 320.222 349.177 332.005 349.177C337.055 349.177 342.203 350.661 346.857 354.026C365.373 367.387 387.454 352.047 387.454 333.44C387.454 328.491 385.968 323.444 382.404 318.594C379.136 314.041 377.552 308.895 377.552 303.847C377.552 292.07 385.869 280.787 398.939 278.609" stroke="#191919" stroke-width="5" stroke-miterlimit="10" stroke-linecap="round" stroke-linejoin="round"/>
<path d="M181.005 188.242C184.273 192.795 185.857 197.941 185.857 202.989C185.857 214.767 177.539 226.05 164.469 228.227C150.211 230.503 143.082 241.984 143.082 253.366C143.082 264.748 150.211 276.13 164.469 278.505C177.539 280.583 185.857 291.866 185.857 303.743C185.857 308.79 184.372 313.937 181.005 318.49C169.321 334.721 179.619 353.625 194.867 358.078" stroke="#191919" stroke-width="5" stroke-miterlimit="10" stroke-linecap="round" stroke-linejoin="round"/>
<path d="M318.239 278.015C310.318 289.694 296.951 297.413 281.703 297.413C257.345 297.413 237.641 277.718 237.641 253.371C237.641 229.024 257.345 209.328 281.703 209.328C299.723 209.328 315.17 220.116 322.002 235.556" stroke="#191919" stroke-width="5" stroke-miterlimit="10" stroke-linecap="round" stroke-linejoin="round"/>
<path d="M268.635 432.804C268.14 432.804 267.645 432.804 267.051 432.804C253.485 433.596 242.297 422.808 242.297 409.446C242.297 408.952 242.297 408.556 242.297 408.061C243.188 392.72 230.91 383.219 218.632 383.219C210.612 383.219 202.591 387.178 198.037 396.184C191.799 408.655 175.956 412.91 164.272 405.191C147.242 394.007 127.835 407.863 127.835 424.688C127.835 428.944 129.023 433.299 131.894 437.554C134.469 441.513 135.756 445.967 135.756 450.322C135.756 458.834 131.102 467.147 122.884 471.304C100.605 482.488 109.022 515.644 133.181 515.644C133.676 515.644 134.172 515.644 134.766 515.644C148.232 514.852 159.52 525.64 159.52 539.001C159.52 539.496 159.52 539.892 159.52 540.387C158.628 555.727 170.906 565.229 183.184 565.229C191.205 565.229 199.225 561.27 203.78 552.263C207.938 544.049 216.256 539.397 224.771 539.397C229.128 539.397 233.583 540.684 237.544 543.257C254.575 554.441 273.982 540.585 273.982 523.759C273.982 519.503 272.793 515.149 269.922 510.893C267.348 506.934 266.06 502.48 266.06 498.125C266.06 489.614 270.714 481.3 278.932 477.143C301.211 465.96 292.894 432.804 268.635 432.804ZM200.908 502.975C185.066 502.975 172.194 490.109 172.194 474.273C172.194 458.438 185.066 445.571 200.908 445.571C216.751 445.571 229.623 458.438 229.623 474.273C229.623 490.109 216.751 502.975 200.908 502.975Z" fill="#8AFFD8"/>
<path d="M264.97 541.181C270.317 536.826 273.882 530.195 273.882 522.97C273.882 518.714 272.693 514.36 269.822 510.104C267.248 506.145 265.96 501.691 265.96 497.336C265.96 488.825 270.614 480.511 278.832 476.354C301.111 465.17 292.695 432.015 268.535 432.015C268.04 432.015 267.545 432.015 266.951 432.015C253.385 432.807 242.197 422.019 242.197 408.657C242.197 408.162 242.197 407.767 242.197 407.272C243.088 391.931 230.81 382.43 218.532 382.43C210.512 382.43 202.491 386.389 197.937 395.395C193.085 405.094 182.391 409.845 172.391 407.866" stroke="#191919" stroke-width="5" stroke-miterlimit="10" stroke-linecap="round" stroke-linejoin="round"/>
<path d="M159.421 538.312C159.421 538.807 159.421 539.203 159.421 539.698C158.53 555.039 170.808 564.54 183.085 564.54C191.106 564.54 199.126 560.581 203.681 551.575C207.839 543.36 216.157 538.708 224.672 538.708C227.346 538.708 230.019 539.203 232.593 540.094" stroke="#191919" stroke-width="5" stroke-miterlimit="10" stroke-linecap="round" stroke-linejoin="round"/>
<path d="M137.735 405.094C131.794 409.449 127.834 416.476 127.834 423.997C127.834 428.253 129.022 432.608 131.893 436.864C134.468 440.823 135.755 445.276 135.755 449.631C135.755 458.143 131.101 466.457 122.883 470.613" stroke="#191919" stroke-width="5" stroke-miterlimit="10" stroke-linecap="round" stroke-linejoin="round"/>
<path d="M183.877 450.324C188.629 446.86 194.471 444.781 200.808 444.781C216.651 444.781 229.523 457.648 229.523 473.483C229.523 489.319 216.651 502.185 200.808 502.185C184.966 502.185 172.094 489.319 172.094 473.483" stroke="#191919" stroke-width="5" stroke-miterlimit="10" stroke-linecap="round" stroke-linejoin="round"/>
<path d="M51.196 301.664L73.277 327.1L6.73804 344.024L69.316 367.283L36.74 403.111L94.664 386.681L95.951 405.09L118.329 393.312" stroke="#191919" stroke-width="5" stroke-miterlimit="10" stroke-linecap="round" stroke-linejoin="round"/>
<path d="M124.172 278.21L100.903 251.587L92.2891 285.831L2.97705 245.648L37.632 285.93" stroke="#191919" stroke-width="5" stroke-miterlimit="10" stroke-linecap="round" stroke-linejoin="round"/>
<path d="M1020.96 143.506L1066.41 98.078" stroke="#191919" stroke-width="5" stroke-miterlimit="10" stroke-linecap="round" stroke-linejoin="round"/>
<path d="M1038.09 174.186L1068.48 165.477" stroke="#191919" stroke-width="5" stroke-miterlimit="10" stroke-linecap="round" stroke-linejoin="round"/>
<path d="M990.26 126.384L998.98 96" stroke="#191919" stroke-width="5" stroke-miterlimit="10" stroke-linecap="round" stroke-linejoin="round"/>
<path d="M886.69 568.398H685.29V699.141H886.69V568.398Z" fill="#C08FFF"/>
<path d="M844.02 568.102H685.29V698.844H735.39" stroke="#191919" stroke-width="5" stroke-miterlimit="10" stroke-linecap="round" stroke-linejoin="round"/>
<path d="M886.79 632.631V568.102" stroke="#191919" stroke-width="5" stroke-miterlimit="10" stroke-linecap="round" stroke-linejoin="round"/>
<path d="M735.39 664.996L783.02 632.632L735.39 600.367" stroke="#191919" stroke-width="5" stroke-miterlimit="10" stroke-linecap="round" stroke-linejoin="round"/>
<path d="M789.36 666.578H836.69" stroke="#191919" stroke-width="5" stroke-miterlimit="10" stroke-linecap="round" stroke-linejoin="round"/>
<path d="M481.517 235.551C515.367 235.551 542.808 208.122 542.808 174.287C542.808 140.452 515.367 113.023 481.517 113.023C447.667 113.023 420.227 140.452 420.227 174.287C420.227 208.122 447.667 235.551 481.517 235.551Z" fill="#C08FFF"/>
<path d="M497.458 174.287L515.974 155.78C517.459 154.295 517.459 151.722 515.974 150.237L506.37 140.637C504.884 139.152 502.31 139.152 500.825 140.637L482.309 159.145L463.793 140.637C462.308 139.152 459.733 139.152 458.248 140.637L448.644 150.237C447.158 151.722 447.158 154.295 448.644 155.78L467.159 174.287L445.871 195.566L458.248 207.938C459.733 209.423 462.308 209.423 463.793 207.938L482.309 189.43L500.825 207.938C502.31 209.423 504.884 209.423 506.37 207.938L515.974 198.338C517.459 196.853 517.459 194.28 515.974 192.795L497.458 174.287Z" fill="white"/>
<path d="M481.517 419.051C515.367 419.051 542.808 391.622 542.808 357.787C542.808 323.952 515.367 296.523 481.517 296.523C447.667 296.523 420.227 323.952 420.227 357.787C420.227 391.622 447.667 419.051 481.517 419.051Z" fill="#C08FFF"/>
<path d="M497.458 357.787L515.974 339.28C517.459 337.795 517.459 335.222 515.974 333.737L506.37 324.137C504.884 322.652 502.31 322.652 500.825 324.137L482.309 342.645L463.793 324.137C462.308 322.652 459.733 322.652 458.248 324.137L448.644 333.737C447.158 335.222 447.158 337.795 448.644 339.28L467.159 357.787L445.871 379.066L458.248 391.438C459.733 392.923 462.308 392.923 463.793 391.438L482.309 372.93L500.825 391.438C502.31 392.923 504.884 392.923 506.37 391.438L515.974 381.838C517.459 380.353 517.459 377.78 515.974 376.295L497.458 357.787Z" fill="white"/>
</g>
</g>
<defs>
<clipPath id="clip0_1_2">
<rect width="1187" height="780" fill="white"/>
</clipPath>
</defs>
</svg>
