<svg width="1038" height="833" viewBox="0 0 1038 833" fill="none" xmlns="http://www.w3.org/2000/svg">
<mask id="mask0_7_74" style="mask-type:luminance" maskUnits="userSpaceOnUse" x="1" y="1" width="1037" height="832">
<path d="M1038 1H1V833H1038V1Z" fill="white"/>
</mask>
<g mask="url(#mask0_7_74)">
<path d="M680.94 663H514.969V812.4H680.94V663Z" fill="#8AFFD8"/>
<path d="M611 429.688H594.566" stroke="#191919" stroke-width="5" stroke-miterlimit="10" stroke-linecap="round" stroke-linejoin="round"/>
<path d="M651.46 130.891H651.36" stroke="#191919" stroke-width="5" stroke-miterlimit="10" stroke-linecap="round" stroke-linejoin="round"/>
<path d="M926.02 361.507C926.02 466.813 856.38 555.896 760.54 585.358V633.034H679.75V585.258C775.59 555.896 845.23 466.813 845.23 361.407C845.23 232.113 740.32 127.305 610.91 127.305H691.7C821.22 127.404 926.02 232.213 926.02 361.507Z" fill="#191919" stroke="#191919" stroke-width="5" stroke-miterlimit="10" stroke-linecap="round" stroke-linejoin="round"/>
<path d="M679.85 633.039H594.668" stroke="#191919" stroke-width="5" stroke-miterlimit="10" stroke-linecap="round" stroke-linejoin="round"/>
<path d="M651.36 306.464C634.42 318.906 623.46 338.912 623.46 361.507H542.664C542.664 323.783 573.249 293.227 611.01 293.227C626.15 293.227 640.1 298.203 651.36 306.464Z" fill="#191919" stroke="#191919" stroke-width="5" stroke-miterlimit="10" stroke-linecap="round" stroke-linejoin="round"/>
<path d="M542.664 361.508H457.484" stroke="#191919" stroke-width="5" stroke-miterlimit="10" stroke-linecap="round" stroke-linejoin="round"/>
<path d="M760.64 663H679.85V812.4H760.64V663Z" fill="#191919" stroke="#191919" stroke-width="5" stroke-miterlimit="10" stroke-linecap="round" stroke-linejoin="round"/>
<path d="M843.53 361.509C843.53 466.815 773.89 555.898 678.05 585.36V633.036H512.079V429.789H609.21C646.97 429.789 677.56 399.232 677.56 361.509C677.56 338.915 666.6 318.909 649.66 306.467C638.3 298.106 624.36 293.229 609.31 293.229C571.555 293.229 540.97 323.786 540.97 361.509H374.895C374.895 232.215 479.8 127.406 609.21 127.406C738.63 127.406 843.53 232.215 843.53 361.509Z" fill="#8AFFD8"/>
<path d="M455.191 186.728C496.636 149.801 551.23 127.406 611.01 127.406C740.42 127.406 845.32 232.215 845.32 361.509C845.32 466.815 775.69 555.898 679.85 585.36V633.036H513.871V580.482" stroke="#191919" stroke-width="5" stroke-miterlimit="10" stroke-linecap="round" stroke-linejoin="round"/>
<path d="M558.404 429.791H611.01C648.76 429.791 679.35 399.234 679.35 361.511C679.35 338.917 668.39 318.911 651.45 306.469C640.1 298.108 626.15 293.231 611.11 293.231C573.348 293.231 542.763 323.788 542.763 361.511H376.688C376.688 315.029 390.237 271.632 413.748 235.203" stroke="#191919" stroke-width="5" stroke-miterlimit="10" stroke-linecap="round" stroke-linejoin="round"/>
<path d="M637.21 812.4H513.871V663" stroke="#191919" stroke-width="5" stroke-miterlimit="10" stroke-linecap="round" stroke-linejoin="round"/>
<path d="M611.01 663H679.85V812.4" stroke="#191919" stroke-width="5" stroke-miterlimit="10" stroke-linecap="round" stroke-linejoin="round"/>
<path d="M172.954 207.232H690.71C706.25 207.232 718.8 194.691 718.8 179.164V111.779C718.8 96.2519 706.25 83.7109 690.71 83.7109H172.954C157.412 83.7109 144.859 96.2519 144.859 111.779V179.164C144.859 194.691 157.412 207.232 172.954 207.232Z" fill="white"/>
<path d="M689.81 207.232H544.555V83.7109H689.81C705.85 83.7109 718.9 96.7499 718.9 112.775V178.168C718.9 194.293 705.85 207.232 689.81 207.232Z" fill="#C08FFF"/>
<path d="M658.53 207.232H690.8C706.35 207.232 718.9 194.691 718.9 179.164V111.779C718.9 96.2519 706.35 83.7109 690.8 83.7109H458.379" stroke="#191919" stroke-width="5" stroke-miterlimit="10" stroke-linecap="round" stroke-linejoin="round"/>
<path d="M144.859 148.211V179.166C144.859 194.693 157.412 207.234 172.954 207.234H611.01" stroke="#191919" stroke-width="5" stroke-miterlimit="10" stroke-linecap="round" stroke-linejoin="round"/>
<path d="M397.908 83.7109H172.954C157.412 83.7109 144.859 96.2519 144.859 111.779V118.647" stroke="#191919" stroke-width="5" stroke-miterlimit="10" stroke-linecap="round" stroke-linejoin="round"/>
<path d="M544.555 83.7109V177.372" stroke="#191919" stroke-width="5" stroke-miterlimit="10" stroke-linecap="round" stroke-linejoin="round"/>
<path d="M644.28 158.013C656.53 145.769 656.53 125.918 644.28 113.674C632.02 101.43 612.15 101.43 599.897 113.674C587.642 125.918 587.642 145.769 599.897 158.013C612.15 170.257 632.02 170.257 644.28 158.013Z" stroke="white" stroke-width="7" stroke-miterlimit="10" stroke-linecap="round" stroke-linejoin="round"/>
<path d="M644.28 157.961L672.77 186.428" stroke="white" stroke-width="7" stroke-miterlimit="10" stroke-linecap="round" stroke-linejoin="round"/>
<path d="M244.983 161.052C240.201 157.071 235.518 152.89 231.633 147.814C230.637 146.52 229.74 145.127 228.943 143.634C228.545 142.837 228.146 142.041 227.847 141.145C227.548 140.25 227.349 139.354 227.249 138.159C227.249 137.064 227.449 135.671 228.246 134.477C228.644 133.879 229.242 133.382 229.74 132.984C230.338 132.685 230.936 132.386 231.434 132.187C233.725 131.59 235.518 131.988 237.212 132.386C240.599 133.282 243.488 134.875 246.178 136.567C248.868 138.259 251.359 140.25 253.75 142.34C256.141 144.43 258.233 146.719 260.325 149.108C262.417 151.497 264.31 154.085 265.904 157.071C267.398 159.957 268.594 163.341 268.395 167.124C268.395 168.019 268.096 169.015 267.897 169.911C267.797 170.408 267.498 170.806 267.398 171.204L267.1 171.901C267 172.1 266.801 172.299 266.701 172.498C266.402 172.897 266.203 173.295 265.904 173.693L264.908 174.788C264.609 175.186 264.21 175.484 263.912 175.683C263.513 175.982 263.214 176.281 262.816 176.48C259.827 178.47 256.44 179.366 253.152 179.764C249.864 180.162 246.577 180.063 243.389 179.665C230.637 177.973 219.08 172.1 209.217 164.536C208.121 163.739 207.922 162.147 208.719 161.052C209.516 159.957 211.11 159.758 212.206 160.554C216.888 164.138 221.969 167.223 227.249 169.711C232.629 172.1 238.208 173.991 243.987 174.688C246.876 175.086 249.765 175.086 252.455 174.788C255.244 174.489 257.834 173.693 259.927 172.299C261.919 170.906 263.214 168.915 263.314 166.626C263.513 164.237 262.716 161.649 261.421 159.26C260.126 156.772 258.432 154.483 256.539 152.293C254.646 150.103 252.554 147.914 250.363 146.022C248.171 144.032 245.879 142.24 243.488 140.648C241.097 139.155 238.507 137.761 236.016 137.164C234.821 136.865 233.526 136.766 232.828 136.965C232.43 137.064 232.33 137.164 232.33 137.264C232.33 137.264 232.231 137.562 232.231 137.96C232.231 138.757 232.729 140.05 233.327 141.245C233.924 142.439 234.721 143.634 235.618 144.729C239.105 149.307 243.588 153.288 248.171 157.17C249.267 158.066 249.366 159.659 248.47 160.654C247.673 161.848 246.079 161.948 244.983 161.052Z" fill="#191919"/>
<path d="M305.752 156.667C298.48 152.088 291.406 147.211 285.03 141.338C281.842 138.452 278.754 135.267 276.064 131.684C274.769 129.892 273.573 127.901 272.577 125.811C272.079 124.716 271.681 123.522 271.481 122.327C271.182 121.034 271.083 119.64 271.382 118.247C271.481 117.55 271.78 116.754 272.179 116.057C272.577 115.36 273.075 114.663 273.673 114.166C274.869 113.071 276.263 112.474 277.559 112.175C280.248 111.578 282.639 111.876 284.931 112.374C289.514 113.369 293.499 115.261 297.384 117.45C304.955 121.929 311.63 127.503 317.707 133.674C320.696 136.859 323.585 140.044 326.076 143.727C328.567 147.41 330.659 151.391 331.854 155.97C332.253 157.065 332.253 158.259 332.452 159.453C332.552 160.051 332.452 160.648 332.552 161.245C332.552 161.842 332.651 162.439 332.452 163.037C332.253 165.525 331.456 167.914 330.161 170.104C328.866 172.194 327.172 174.085 325.179 175.478C324.681 175.876 324.183 176.175 323.685 176.474C323.187 176.772 322.689 177.071 322.191 177.369L320.597 178.066C320.298 178.166 320.099 178.365 319.8 178.464L319.003 178.763C314.719 180.355 310.136 180.953 305.752 181.052C301.369 181.152 296.886 180.754 292.602 179.957C288.318 179.161 284.134 178.066 279.95 176.673C275.865 175.279 271.88 173.587 267.895 171.696C266.699 171.099 266.102 169.606 266.699 168.411C267.297 167.217 268.791 166.62 269.987 167.217H270.087C273.773 169.009 277.559 170.701 281.544 171.995C285.429 173.289 289.414 174.383 293.399 175.08C297.384 175.777 301.469 176.175 305.553 176.076C309.538 175.976 313.523 175.379 317.209 174.085C320.896 172.791 323.984 170.601 325.877 167.615C326.674 166.122 327.272 164.43 327.471 162.639C327.57 162.24 327.471 161.743 327.471 161.245C327.471 160.747 327.471 160.349 327.471 159.852C327.272 158.956 327.272 158.06 326.973 157.065C326.076 153.382 324.183 149.799 321.892 146.514C319.6 143.13 316.91 140.144 314.121 137.058C308.343 131.186 301.967 125.811 294.893 121.631C291.406 119.64 287.72 117.948 283.935 117.052C282.141 116.654 280.248 116.555 278.754 116.853C278.057 117.052 277.459 117.351 277.06 117.649C276.662 117.948 276.463 118.446 276.363 119.043C276.064 120.237 276.562 122.029 277.26 123.721C278.057 125.413 279.053 127.105 280.248 128.698C282.639 131.883 285.529 134.869 288.517 137.656C294.594 143.23 301.469 148.007 308.542 152.387C309.737 153.083 310.036 154.676 309.339 155.771C308.442 156.965 306.948 157.363 305.752 156.667Z" fill="#191919"/>
<path d="M375.192 160.649C367.222 155.473 359.651 149.899 352.577 143.43C349.09 140.245 345.703 136.761 342.714 132.979C341.22 131.087 339.825 129.097 338.63 126.907C337.434 124.717 336.338 122.329 335.94 119.542C335.741 118.148 335.741 116.556 336.438 114.864C336.737 114.067 337.235 113.271 337.833 112.574C338.431 111.977 339.228 111.38 339.925 111.081C341.419 110.285 342.914 110.185 344.308 110.086C345.703 110.086 346.998 110.185 348.293 110.484C353.374 111.579 357.758 113.769 361.942 116.257C370.211 121.234 377.384 127.604 384.059 134.273C387.347 137.657 390.535 141.24 393.424 145.122C396.213 149.004 398.803 153.283 400.298 158.26C400.995 160.748 401.394 163.436 401.095 166.123C400.696 168.91 399.501 171.697 397.608 173.688C395.715 175.778 393.324 177.171 390.933 178.167C388.542 179.162 386.051 179.759 383.66 180.157C378.779 180.954 373.897 180.854 369.115 180.357C364.333 179.859 359.651 179.063 354.968 177.868C345.703 175.579 336.737 172.294 328.169 168.413C326.874 167.815 326.376 166.422 326.974 165.128C327.571 163.834 328.966 163.336 330.261 163.934C338.63 167.716 347.297 170.901 356.164 173.091C360.647 174.185 365.13 174.982 369.613 175.479C374.096 175.878 378.679 175.977 382.963 175.28C385.155 174.982 387.247 174.484 389.14 173.588C391.033 172.792 392.726 171.697 394.021 170.304C395.317 168.91 396.014 167.218 396.313 165.327C396.512 163.436 396.313 161.445 395.715 159.355C394.52 155.274 392.228 151.392 389.638 147.809C387.048 144.126 383.959 140.742 380.771 137.458C374.296 130.988 367.322 124.817 359.651 120.139C355.765 117.85 351.681 115.859 347.596 114.963C345.604 114.565 343.511 114.565 342.316 115.162C341.718 115.461 341.419 115.859 341.12 116.357C340.921 116.954 340.822 117.75 340.921 118.646C341.12 120.437 342.017 122.428 343.013 124.319C344.01 126.21 345.305 128.002 346.699 129.794C349.489 133.277 352.677 136.562 356.064 139.647C362.839 145.818 370.311 151.293 377.982 156.369C379.078 157.066 379.377 158.559 378.679 159.654C377.783 161.047 376.288 161.346 375.192 160.649Z" fill="#191919"/>
<path d="M434.869 158.663C433.175 157.568 431.681 156.473 430.087 155.379L425.404 152.094C423.81 150.999 422.316 149.904 420.722 148.71C419.925 148.113 419.227 147.515 418.43 146.918C417.633 146.321 416.936 145.624 416.139 145.027C413.25 142.439 410.46 139.652 407.97 136.666C405.479 133.581 403.188 130.296 401.992 125.917C401.893 125.319 401.693 124.822 401.693 124.225C401.693 123.926 401.594 123.627 401.594 123.329L401.693 122.333C401.693 122.134 401.693 122.035 401.693 121.836L401.793 121.338C401.893 121.039 401.992 120.641 402.092 120.343C402.291 120.044 402.391 119.646 402.59 119.347C402.789 119.049 403.088 118.75 403.287 118.452L403.686 118.053L404.184 117.755C404.483 117.556 404.782 117.257 405.18 117.158C405.878 116.859 406.475 116.66 407.173 116.56C407.472 116.461 407.771 116.461 408.169 116.461H409.066C409.663 116.461 410.261 116.56 410.759 116.56C415.143 117.158 418.729 119.049 422.216 120.94C425.603 122.931 428.791 125.22 431.78 127.708C434.769 130.197 437.658 132.784 440.448 135.472C443.137 138.259 445.728 141.245 447.92 144.629C450.111 147.914 452.004 151.596 453 155.677C453.2 156.672 453.499 157.668 453.499 158.763L453.598 160.355V161.948V162.744L453.499 163.54L453.2 165.133C452.901 166.228 452.602 167.323 452.104 168.218C451.207 170.309 449.812 172.001 448.218 173.494L447.023 174.588C446.624 174.887 446.126 175.186 445.728 175.484C444.831 176.081 443.934 176.579 442.938 177.077C439.152 178.868 435.068 179.565 431.083 179.864C427.098 180.162 423.113 179.864 419.227 179.267C415.342 178.669 411.556 177.774 407.87 176.579C404.184 175.484 400.498 174.091 397.011 172.598C395.716 172.1 395.118 170.607 395.616 169.313C396.114 168.019 397.609 167.422 398.904 167.92H399.003C402.391 169.313 405.878 170.707 409.364 171.702C412.851 172.797 416.438 173.693 420.024 174.19C423.611 174.788 427.297 174.987 430.784 174.788C434.271 174.588 437.857 173.892 440.846 172.498C443.835 171.105 446.425 168.915 447.72 166.029C448.119 165.332 448.218 164.536 448.517 163.839L448.717 162.644L448.816 162.047V161.45V160.256L448.717 159.061C448.717 158.265 448.418 157.369 448.318 156.573C447.521 153.288 445.927 150.103 443.934 147.117C441.942 144.131 439.551 141.344 437.06 138.756C431.88 133.581 426.102 128.704 419.925 125.021C416.836 123.229 413.449 121.637 410.361 121.239C408.866 121.039 407.472 121.338 407.073 121.836C406.575 122.134 406.475 123.528 406.874 124.921C407.272 126.414 407.97 127.907 408.866 129.4C409.763 130.893 410.759 132.386 411.955 133.78C414.246 136.567 416.836 139.155 419.526 141.643C420.224 142.24 420.921 142.837 421.618 143.435C422.316 144.032 423.013 144.529 423.81 145.127C425.305 146.221 426.799 147.316 428.393 148.411L432.976 151.696C434.47 152.791 436.064 153.886 437.558 154.781H437.658C438.754 155.478 439.053 156.971 438.355 158.066C437.459 159.061 435.964 159.36 434.869 158.663Z" fill="#191919"/>
<path d="M487.37 147.417C488.864 151.996 489.96 156.972 489.063 162.148C488.565 164.736 487.469 167.423 485.576 169.514C483.683 171.703 480.994 172.898 478.403 173.495C473.123 174.59 468.241 173.694 463.559 172.5C458.976 171.206 454.593 169.414 450.309 167.423C449.113 166.826 448.516 165.333 449.113 164.139C449.711 162.944 451.206 162.347 452.401 162.944C456.486 164.935 460.57 166.627 464.854 167.821C469.038 169.016 473.422 169.713 477.208 168.817C479.101 168.319 480.794 167.622 481.89 166.229C483.086 164.935 483.883 163.243 484.182 161.352C484.879 157.47 484.082 153.091 482.687 149.01C482.289 147.716 482.886 146.422 484.182 145.924C485.477 145.426 486.871 146.223 487.37 147.417Z" fill="#191919"/>
<path d="M233.229 3.49194L184.113 52.562" stroke="#191919" stroke-width="5" stroke-miterlimit="10" stroke-linecap="round" stroke-linejoin="round"/>
<path d="M233.229 52.562L184.113 3.49194" stroke="#191919" stroke-width="5" stroke-miterlimit="10" stroke-linecap="round" stroke-linejoin="round"/>
<path d="M274.77 52.5549H329.065" stroke="#191919" stroke-width="5" stroke-miterlimit="10" stroke-linecap="round" stroke-linejoin="round"/>
<path d="M863.06 830.71C872.42 830.71 877.8 822.55 875.21 812.5L728.57 251.23C725.97 241.177 716.21 233.016 706.85 233.016C697.48 233.016 692.1 241.177 694.69 251.23L841.34 812.5C844.03 822.65 853.69 830.71 863.06 830.71Z" fill="white"/>
<path d="M866.84 298.903L854.39 251.127C853.1 246.05 853.79 241.571 855.99 238.187C858.18 234.903 861.86 232.812 866.55 232.812C875.91 232.812 885.57 240.974 888.26 251.027L1034.81 812.2C1037.4 822.25 1032.02 830.41 1022.66 830.41C1013.29 830.41 1003.63 822.25 1000.94 812.2L988.49 764.42" fill="white"/>
<path d="M818.53 595.212L728.57 250.926C725.97 240.873 716.21 232.711 706.85 232.711C697.48 232.711 692.1 240.873 694.69 250.926" stroke="#191919" stroke-width="5" stroke-miterlimit="10" stroke-linecap="round" stroke-linejoin="round"/>
<path d="M737.63 415.359L841.34 812.3C843.93 822.35 853.69 830.51 863.06 830.51C872.42 830.51 877.8 822.35 875.21 812.3L827.79 630.75" stroke="#191919" stroke-width="5" stroke-miterlimit="10" stroke-linecap="round" stroke-linejoin="round"/>
<path d="M930.7 542.961L953.62 630.451" stroke="#191919" stroke-width="5" stroke-miterlimit="10" stroke-linecap="round" stroke-linejoin="round"/>
<path d="M872.92 321.695L895.74 409.285" stroke="#191919" stroke-width="5" stroke-miterlimit="10" stroke-linecap="round" stroke-linejoin="round"/>
<path d="M991.97 648.07L1034.81 812C1037.4 822.05 1032.02 830.22 1022.66 830.22C1013.29 830.22 1003.63 822.05 1000.94 812L988.48 764.23" stroke="#191919" stroke-width="5" stroke-miterlimit="10" stroke-linecap="round" stroke-linejoin="round"/>
<path d="M961.49 531.414L971.05 567.843" stroke="#191919" stroke-width="5" stroke-miterlimit="10" stroke-linecap="round" stroke-linejoin="round"/>
<path d="M866.84 298.606L854.39 250.83C853.1 245.754 853.79 241.275 855.99 237.89C858.18 234.606 861.86 232.516 866.55 232.516C875.91 232.516 885.57 240.677 888.26 250.73L953.62 500.957" stroke="#191919" stroke-width="5" stroke-miterlimit="10" stroke-linecap="round" stroke-linejoin="round"/>
<path d="M901.81 432.375L924.63 519.865" stroke="#191919" stroke-width="5" stroke-miterlimit="10" stroke-linecap="round" stroke-linejoin="round"/>
<path d="M959.59 653.641L982.51 741.13" stroke="#191919" stroke-width="5" stroke-miterlimit="10" stroke-linecap="round" stroke-linejoin="round"/>
<path d="M747.09 321.892L872.92 321.693H880.89C886.77 321.693 890.25 316.518 888.56 310.147C887.76 306.962 885.77 304.076 883.28 301.986C880.79 299.895 877.8 298.602 874.81 298.602H866.84L741.02 298.801L747.09 321.892Z" fill="white"/>
<path d="M775.98 432.58L901.81 432.381H909.78C915.66 432.381 919.15 427.205 917.45 420.835C916.65 417.65 914.66 414.763 912.17 412.673C909.68 410.583 906.69 409.289 903.7 409.289H895.73L769.91 409.488L775.98 432.58Z" fill="white"/>
<path d="M804.88 543.158L930.7 542.959H938.67C944.55 542.959 948.04 537.783 946.35 531.413C945.55 528.228 943.56 525.342 941.07 523.251C938.58 521.161 935.59 519.867 932.6 519.867H924.63L798.8 520.066L804.88 543.158Z" fill="white"/>
<path d="M833.87 653.838L959.69 653.639H967.66C973.54 653.639 977.03 648.463 975.33 642.093C974.54 638.908 972.54 636.021 970.05 633.931C967.56 631.841 964.57 630.547 961.59 630.547H953.62L827.79 630.746L833.87 653.838Z" fill="white"/>
<path d="M862.76 764.42L988.59 764.22H996.56C1002.44 764.22 1005.92 759.05 1004.23 752.68C1003.43 749.49 1001.44 746.61 998.95 744.52C996.46 742.43 993.47 741.13 990.48 741.13H982.51L856.68 741.33L862.76 764.42Z" fill="white"/>
<path d="M780.47 321.894L872.82 321.795H880.79C886.67 321.795 890.16 316.619 888.46 310.249C887.67 307.064 885.67 304.177 883.18 302.087C880.69 299.997 877.7 298.703 874.71 298.703H866.74L740.92 298.902L747 321.994" stroke="#191919" stroke-width="5" stroke-miterlimit="10" stroke-linecap="round" stroke-linejoin="round"/>
<path d="M775.98 432.58L901.81 432.381H909.78C915.66 432.381 919.15 427.205 917.45 420.835C916.66 417.65 914.66 414.763 912.17 412.673C909.68 410.583 906.69 409.289 903.7 409.289H823.31" stroke="#191919" stroke-width="5" stroke-miterlimit="10" stroke-linecap="round" stroke-linejoin="round"/>
<path d="M804.88 543.158L930.7 542.959H938.67C944.55 542.959 948.04 537.783 946.35 531.413C945.55 528.228 943.56 525.342 941.07 523.251C938.58 521.161 935.59 519.867 932.6 519.867H924.63L798.8 520.066L804.88 543.158Z" stroke="#191919" stroke-width="5" stroke-miterlimit="10" stroke-linecap="round" stroke-linejoin="round"/>
<path d="M895.73 630.553L827.79 630.652L833.87 653.744L959.69 653.545H967.66C973.54 653.545 977.03 648.369 975.33 641.999C974.54 638.814 972.54 635.927 970.05 633.837C967.56 631.747 964.57 630.453 961.59 630.453H953.62L917.95 630.553" stroke="#191919" stroke-width="5" stroke-miterlimit="10" stroke-linecap="round" stroke-linejoin="round"/>
<path d="M856.68 741.33L862.76 764.42L988.59 764.22H996.56C1002.44 764.22 1005.92 759.05 1004.23 752.68C1003.43 749.49 1001.44 746.61 998.95 744.52C996.46 742.43 993.47 741.13 990.48 741.13H982.51L889.16 741.23" stroke="#191919" stroke-width="5" stroke-miterlimit="10" stroke-linecap="round" stroke-linejoin="round"/>
<path d="M245.383 432.18V472.988C245.383 511.607 263.415 548.136 294.1 571.626L325.681 595.813C331.758 600.491 331.758 609.648 325.681 614.326L294.1 638.512C263.415 662.002 245.383 698.531 245.383 737.15V777.96H458.382V737.15C458.382 698.531 440.35 662.002 409.665 638.512L378.084 614.326C372.007 609.648 372.007 600.491 378.084 595.813L409.665 571.626C440.35 548.136 458.382 511.607 458.382 472.988V432.18H245.383Z" fill="#C08FFF"/>
<path d="M421.421 755.26C421.421 751.08 419.329 747 415.742 744.41C410.96 740.93 403.189 736.45 393.526 734.26C388.544 733.17 383.065 732.17 377.685 731.37C360.55 728.89 343.215 728.89 326.079 731.37C320.699 732.17 315.22 733.07 310.239 734.26C300.575 736.45 292.804 740.93 288.022 744.41C284.436 747 282.344 750.98 282.344 755.26H421.421Z" fill="white" stroke="white" stroke-width="5" stroke-miterlimit="10" stroke-linecap="round" stroke-linejoin="round"/>
<path d="M340.922 570.034C347.796 573.816 355.965 573.816 362.739 570.034C382.665 558.886 421.319 530.718 421.319 504.242C421.319 499.763 417.035 496.18 411.855 496.18H351.781H291.707C286.426 496.18 282.242 499.763 282.242 504.242C282.342 530.718 320.996 558.886 340.922 570.034Z" fill="white" stroke="white" stroke-width="5" stroke-miterlimit="10" stroke-linecap="round" stroke-linejoin="round"/>
<path d="M293.998 571.828L325.579 596.015C331.656 600.693 331.656 609.85 325.579 614.528L293.998 638.715C263.313 662.204 245.281 698.733 245.281 737.35V778.16H458.28V737.35C458.28 732.48 457.981 727.7 457.483 723.019" stroke="#191919" stroke-width="5" stroke-miterlimit="10" stroke-linecap="round" stroke-linejoin="round"/>
<path d="M316.615 432.375H245.383V473.184C245.383 493.688 250.464 513.694 259.828 531.311" stroke="#191919" stroke-width="5" stroke-miterlimit="10" stroke-linecap="round" stroke-linejoin="round"/>
<path d="M449.513 691.363C441.343 670.859 427.695 652.644 409.663 638.809L378.081 614.623C372.004 609.945 372.004 600.788 378.081 596.11L409.663 571.923C440.347 548.433 458.379 511.904 458.379 473.285V455.469" stroke="#191919" stroke-width="5" stroke-miterlimit="10" stroke-linecap="round" stroke-linejoin="round"/>
<path d="M363.04 432.376H465.754C475.218 432.376 482.79 424.712 482.79 415.356C482.79 405.9 475.119 398.336 465.754 398.336H237.911C228.447 398.336 220.875 406 220.875 415.356C220.875 424.812 228.546 432.376 237.911 432.376H307.35" stroke="#191919" stroke-width="5" stroke-miterlimit="10" stroke-linecap="round" stroke-linejoin="round"/>
<path d="M465.854 812.4C475.318 812.4 482.89 804.74 482.89 795.38C482.89 785.92 475.218 778.36 465.854 778.36H237.911C228.447 778.36 220.875 786.02 220.875 795.38C220.875 804.84 228.546 812.4 237.911 812.4H421.421" stroke="#191919" stroke-width="5" stroke-miterlimit="10" stroke-linecap="round" stroke-linejoin="round"/>
<path d="M56.8909 423.323V319.51C56.8909 301.096 71.8339 286.067 90.3649 286.067H252.953L327.274 237.594V286.067V423.323C327.274 441.737 312.33 456.766 293.8 456.766H90.3649C71.8339 456.766 56.8909 441.737 56.8909 423.323Z" fill="white"/>
<path d="M130.512 455.37H89.6659C71.2349 455.37 56.1909 440.44 56.1909 421.927V318.213C56.1909 299.799 71.1349 284.77 89.6659 284.77H252.254L326.575 236.297" stroke="#191919" stroke-width="5" stroke-miterlimit="10" stroke-linecap="round" stroke-linejoin="round"/>
<path d="M326.674 273.625V421.93C326.674 440.344 311.731 455.373 293.2 455.373H176.141" stroke="#191919" stroke-width="5" stroke-miterlimit="10" stroke-linecap="round" stroke-linejoin="round"/>
<path d="M111.883 334.734H271.084" stroke="#191919" stroke-width="5" stroke-miterlimit="10" stroke-linecap="round" stroke-linejoin="round"/>
<path d="M173.152 371.664H271.084" stroke="#191919" stroke-width="5" stroke-miterlimit="10" stroke-linecap="round" stroke-linejoin="round"/>
<path d="M111.883 371.664H144.859" stroke="#191919" stroke-width="5" stroke-miterlimit="10" stroke-linecap="round" stroke-linejoin="round"/>
<path d="M111.883 408.586H191.483" stroke="#191919" stroke-width="5" stroke-miterlimit="10" stroke-linecap="round" stroke-linejoin="round"/>
<path d="M197.262 523.852V552.617" stroke="#191919" stroke-width="5" stroke-miterlimit="10" stroke-linecap="round" stroke-linejoin="round"/>
<path d="M168.867 531.414L183.313 556.397" stroke="#191919" stroke-width="5" stroke-miterlimit="10" stroke-linecap="round" stroke-linejoin="round"/>
<path d="M148.145 552.117L173.15 566.55" stroke="#191919" stroke-width="5" stroke-miterlimit="10" stroke-linecap="round" stroke-linejoin="round"/>
<path d="M140.574 580.484H169.366" stroke="#191919" stroke-width="5" stroke-miterlimit="10" stroke-linecap="round" stroke-linejoin="round"/>
<path d="M148.145 608.753L173.15 594.32" stroke="#191919" stroke-width="5" stroke-miterlimit="10" stroke-linecap="round" stroke-linejoin="round"/>
<path d="M168.867 629.459L183.313 604.477" stroke="#191919" stroke-width="5" stroke-miterlimit="10" stroke-linecap="round" stroke-linejoin="round"/>
<path d="M197.262 637.023V608.258" stroke="#191919" stroke-width="5" stroke-miterlimit="10" stroke-linecap="round" stroke-linejoin="round"/>
<path d="M225.555 629.459L211.109 604.477" stroke="#191919" stroke-width="5" stroke-miterlimit="10" stroke-linecap="round" stroke-linejoin="round"/>
<path d="M240.101 605.169L221.371 594.32" stroke="#191919" stroke-width="5" stroke-miterlimit="10" stroke-linecap="round" stroke-linejoin="round"/>
<path d="M240.098 580.484H225.055" stroke="#191919" stroke-width="5" stroke-miterlimit="10" stroke-linecap="round" stroke-linejoin="round"/>
<path d="M226.552 563.562L221.371 566.549" stroke="#191919" stroke-width="5" stroke-miterlimit="10" stroke-linecap="round" stroke-linejoin="round"/>
<path d="M42.647 273.628L5.18799 236.203" stroke="#191919" stroke-width="5" stroke-miterlimit="10" stroke-linecap="round" stroke-linejoin="round"/>
<path d="M28.4979 298.909L3.49194 291.742" stroke="#191919" stroke-width="5" stroke-miterlimit="10" stroke-linecap="round" stroke-linejoin="round"/>
<path d="M67.9479 259.491L60.6759 234.508" stroke="#191919" stroke-width="5" stroke-miterlimit="10" stroke-linecap="round" stroke-linejoin="round"/>
<path d="M323.785 658.82H70.637C63.364 658.82 57.387 664.693 57.387 672.058V694.055C57.387 701.321 63.265 707.293 70.637 707.293H323.785C331.057 707.293 337.035 701.421 337.035 694.055V672.058C337.035 664.693 331.157 658.82 323.785 658.82Z" fill="white"/>
<path d="M176.14 658.914H70.637C63.364 658.914 57.387 664.787 57.387 672.152V694.149C57.387 701.415 63.265 707.387 70.637 707.387H279.352" stroke="#191919" stroke-width="5" stroke-miterlimit="10" stroke-linecap="round" stroke-linejoin="round"/>
<path d="M313.225 707.387H323.785C331.058 707.387 337.035 701.514 337.035 694.149V672.152C337.035 664.886 331.157 658.914 323.785 658.914H203.039" stroke="#191919" stroke-width="5" stroke-miterlimit="10" stroke-linecap="round" stroke-linejoin="round"/>
<path d="M83.5899 671.953H71.3359V694.149H83.5899V671.953Z" fill="#191919" stroke="#191919" stroke-width="5" stroke-miterlimit="10" stroke-linecap="round" stroke-linejoin="round"/>
<path d="M110.09 671.953H97.8359V694.149H110.09V671.953Z" fill="#191919" stroke="#191919" stroke-width="5" stroke-miterlimit="10" stroke-linecap="round" stroke-linejoin="round"/>
<path d="M136.59 671.953H124.336V694.149H136.59V671.953Z" fill="#191919" stroke="#191919" stroke-width="5" stroke-miterlimit="10" stroke-linecap="round" stroke-linejoin="round"/>
<path d="M163.09 671.953H150.836V694.149H163.09V671.953Z" fill="#191919" stroke="#191919" stroke-width="5" stroke-miterlimit="10" stroke-linecap="round" stroke-linejoin="round"/>
</g>
</svg>
