<svg width="370" height="370" viewBox="0 0 370 370" fill="none" xmlns="http://www.w3.org/2000/svg">
<rect width="370" height="370" rx="86" fill="#0A6BCB"/>
<path d="M111.007 182.555C164.014 85.2467 281.512 89.45 324 130.272C323.98 130.465 317.688 191.574 239.56 225.326C181.901 250.166 125.791 224.004 125.791 224.004C117.815 235.812 114.625 259.795 77.208 276.864L90.4023 213.218C83.7444 207.8 64.3428 191.998 40 172.135C76.2568 162.947 92.1002 174.523 111.007 182.555ZM246.971 119.497C236.687 119.497 228.35 127.834 228.35 138.117C228.35 148.401 236.687 156.738 246.971 156.738C257.255 156.738 265.591 148.401 265.591 138.117C265.591 127.834 257.254 119.497 246.971 119.497Z" fill="white"/>
</svg>
